<svg width="96" height="89" fill="none" xmlns="http://www.w3.org/2000/svg"><path d="M6 88.5l24-14L11.5 64 6 88.5z" fill="#fff"/><mask id="a" maskUnits="userSpaceOnUse" x="0" y="0" width="96" height="85" fill="#000"><path fill="#fff" d="M0 0h96v85H0z"/><path fill-rule="evenodd" clip-rule="evenodd" d="M41.231 19.974c5.98.532 11.433 4.466 13.747 7.24 6.083 7.33 10.298 18.02 10.298 18.02s1.538 6.035 7.73 3.939c5.586-1.9 4.017-10.128 3.547-12.59-.052-.272-.09-.474-.105-.59-.14-1.16-3.707-3.697-9.167-4.04-5.468-.333-4.405-6.344-4.405-6.344s-.15-1.954.175-1.478c.324.469 1.18 1.252 1.18 1.252s5.726.151 8.095.427c2.37.274 4.903 3.473 4.903 3.473 1.356-5.603 5.519-6.377 8.252-6.886l.193-.036c2.726-.509 2.793-2.095 2.793-2.095s.498-.025.772 3.439c.266 3.465-2.818 6.753-6.948 7.439-4.131.684-3.5 4.724-3.5 4.724l.416 4.316c1.097 9.167-.548 14.76-6.74 22.423-2.827 3.489-7.05 5.844-10.823 7.38.673 1.72 2.868 6.546 6.716 7.097-8.627 3.347-17.72-1.544-21.376-3.916-1.572.125-3.541.268-5.993.434-12.64.852-20.587-1.995-25.898-5.309-3.109-1.947-4.397-3.798-5.468-6.862-.06-.17.473-.036 1.457.213 3.303.836 11.688 2.958 19.852-.856.916-.51.823-.726-.116-.543-5.759 1.111-14.162 1.427-22.066-3.882-1.433-.96-1.69-2.393-2.113-4.755a109.4 109.4 0 00-.205-1.118l-.014-.099c-.63-4.465-2.045-14.48 9.145-25.53 2.284-1.978 6.296-3.393 8.736-4.237L21.64 7.02s9.755-1.91 21.102-.503L41.23 19.974z"/></mask><path fill-rule="evenodd" clip-rule="evenodd" d="M41.231 19.974c5.98.532 11.433 4.466 13.747 7.24 6.083 7.33 10.298 18.02 10.298 18.02s1.538 6.035 7.73 3.939c5.586-1.9 4.017-10.128 3.547-12.59-.052-.272-.09-.474-.105-.59-.14-1.16-3.707-3.697-9.167-4.04-5.468-.333-4.405-6.344-4.405-6.344s-.15-1.954.175-1.478c.324.469 1.18 1.252 1.18 1.252s5.726.151 8.095.427c2.37.274 4.903 3.473 4.903 3.473 1.356-5.603 5.519-6.377 8.252-6.886l.193-.036c2.726-.509 2.793-2.095 2.793-2.095s.498-.025.772 3.439c.266 3.465-2.818 6.753-6.948 7.439-4.131.684-3.5 4.724-3.5 4.724l.416 4.316c1.097 9.167-.548 14.76-6.74 22.423-2.827 3.489-7.05 5.844-10.823 7.38.673 1.72 2.868 6.546 6.716 7.097-8.627 3.347-17.72-1.544-21.376-3.916-1.572.125-3.541.268-5.993.434-12.64.852-20.587-1.995-25.898-5.309-3.109-1.947-4.397-3.798-5.468-6.862-.06-.17.473-.036 1.457.213 3.303.836 11.688 2.958 19.852-.856.916-.51.823-.726-.116-.543-5.759 1.111-14.162 1.427-22.066-3.882-1.433-.96-1.69-2.393-2.113-4.755a109.4 109.4 0 00-.205-1.118l-.014-.099c-.63-4.465-2.045-14.48 9.145-25.53 2.284-1.978 6.296-3.393 8.736-4.237L21.64 7.02s9.755-1.91 21.102-.503L41.23 19.974z" fill="#06BAB5"/><path d="M41.231 19.974l-5.962-.67-.685 6.103 6.116.544.531-5.977zm13.747 7.24l4.617-3.832-.01-.01-4.607 3.842zm10.298 18.02l5.815-1.481-.094-.368-.139-.353-5.582 2.201zm7.73 3.939l1.924 5.683.009-.003-1.933-5.68zm3.547-12.59l-5.894 1.124 5.894-1.125zm-.105-.59l5.957-.724-5.957.725zm-9.167-4.04l.376-5.988h-.01l-.366 5.988zm-4.405-6.344l5.909 1.045.132-.747-.058-.756-5.983.458zm.175-1.478l-4.96 3.377.012.017.012.018 4.936-3.412zm1.18 1.252L60.18 29.81l1.653 1.513 2.24.06.158-5.999zm8.095.427l-.693 5.96h.003l.69-5.96zm4.903 3.473l-4.703 3.725 7.642 9.646 2.893-11.96-5.832-1.411zm8.252-6.886l1.098 5.899-1.098-5.899zm.193-.036l-1.102-5.898h-.002l1.104 5.898zm2.793-2.095l-.3-5.992-5.466.273-.23 5.468 5.996.251zm.772 3.439l5.983-.46v-.006l-.001-.008-5.982.474zm-6.948 7.439l.98 5.92.003-.001-.983-5.92zm-3.5 4.724l5.973-.575-.017-.176-.027-.175-5.928.926zm.416 4.316l-5.972.575.006.069.008.069 5.958-.713zm-6.74 22.423l4.661 3.777.005-.006-4.667-3.77zm-10.823 7.38l-2.262-5.557-5.482 2.23 2.157 5.512 5.587-2.186zm6.716 7.097l2.17 5.593 21.36-8.287-22.68-3.246-.85 5.94zm-21.376-3.916l3.264-5.034-1.708-1.108-2.03.16.474 5.982zm-5.993.434l.403 5.987h.002l-.405-5.987zm-25.898-5.309l-3.184 5.085.007.005 3.177-5.09zm-5.468-6.862l-5.67 1.965.003.008.003.008 5.664-1.981zm1.457.213L9.61 67.461l1.472-5.817zm19.852-.856l2.54 5.436.192-.09.186-.103-2.917-5.243zm-.116-.543l1.137 5.892.01-.002-1.147-5.89zM8.752 56.363l3.346-4.981-.01-.006-3.336 4.987zM6.64 51.608L.733 52.666l5.906-1.058zm-.205-1.118l-5.94.838.019.14.026.14 5.895-1.118zm-.014-.099l5.941-.839-5.94.84zm9.145-25.53l-3.928-4.535-.149.128-.14.138 4.216 4.27zm8.736-4.237l1.961 5.67 4.928-1.704-1-5.117-5.89 1.151zM21.64 7.02l-1.153-5.888L14.6 2.284l1.151 5.887L21.64 7.02zm21.102-.503l5.962.67.662-5.895-5.886-.73-.738 5.955zM40.7 25.95c1.888.168 3.9.905 5.761 1.988 1.88 1.094 3.258 2.338 3.909 3.118l9.216-7.686c-3.073-3.684-9.89-8.668-17.823-9.373L40.7 25.95zm9.66 5.095c2.626 3.163 4.964 7.212 6.694 10.633a86.041 86.041 0 011.975 4.181 63.442 63.442 0 01.667 1.578v-.002s-.001-.002 5.58-2.203a2019.519 2019.519 0 005.58-2.204v-.004a.574.574 0 00-.005-.012l-.014-.035a35.762 35.762 0 00-.211-.517 75.131 75.131 0 00-.61-1.424 97.958 97.958 0 00-2.253-4.772c-1.899-3.756-4.71-8.716-8.168-12.883l-9.234 7.664zm14.916 14.187c-5.814 1.481-5.813 1.484-5.812 1.487a.217.217 0 01.005.02 32.217 32.217 0 01.023.09 8.595 8.595 0 00.176.571c.108.321.263.738.478 1.213a12.91 12.91 0 002.277 3.459c1.182 1.272 2.894 2.546 5.215 3.166 2.339.624 4.814.456 7.292-.383L71.082 43.49c-.618.21-.657.072-.348.155.29.078.457.235.481.26.006.007-.012-.012-.044-.063a1.433 1.433 0 01-.12-.239l-.01-.027a1.034 1.034 0 01.029.096l.01.037.005.02.003.012.001.006c.001.003.002.006-5.813 1.486zm9.663 9.62c6.142-2.09 7.752-7.697 8.085-11.197.338-3.56-.352-7.013-.578-8.198l-11.786 2.25c.244 1.277.575 3.169.418 4.814-.075.788-.233 1.131-.27 1.196-.006.008.03-.052.119-.127.094-.079.164-.103.147-.097l3.866 11.36zm7.507-19.395a44.087 44.087 0 01-.055-.296l-.005-.027.006.038.013.096-11.913 1.45c.046.371.139.84.167.988l11.787-2.25zm-.041-.189c-.175-1.432-.776-2.503-1.187-3.114a9.362 9.362 0 00-1.42-1.639c-.924-.855-2.03-1.583-3.185-2.18-2.337-1.207-5.404-2.148-8.956-2.37l-.752 11.976c1.909.12 3.355.619 4.2 1.056.438.225.591.37.545.328-.02-.02-.187-.173-.393-.48-.166-.247-.626-.986-.765-2.127l11.912-1.45zm-14.758-9.304c-.193-.012.205-.012.682.423a2 2 0 01.4.498 1.278 1.278 0 01.091.204l-.006-.032a2.225 2.225 0 01-.01-.525l-.002.012a1.926 1.926 0 01-.01.072l-.004.018-.002.01v.004c0 .003-.001.005-5.91-1.04-5.908-1.046-5.908-1.043-5.909-1.04v.005l-.003.011a4.596 4.596 0 01-.013.081 8.971 8.971 0 00-.073.537 14.07 14.07 0 00-.08 1.2c-.024.925.03 2.307.438 3.82.413 1.524 1.26 3.439 3.007 5.031 1.816 1.657 4.132 2.533 6.673 2.688l.73-11.977zm-4.77-.356l5.982-.457v.007l-.001-.027a9.837 9.837 0 01-.016-.397c0-.025 0 .021-.007.117a4.633 4.633 0 01-.158.88 5.722 5.722 0 01-.615 1.442 5.935 5.935 0 01-3.428 2.643c-2.329.68-4.206-.214-5.107-.852a5.77 5.77 0 01-1.436-1.457l9.92-6.753a6.23 6.23 0 00-1.547-1.581c-.934-.662-2.842-1.564-5.197-.875a6.064 6.064 0 00-3.5 2.709 6.28 6.28 0 00-.67 1.582c-.264.968-.254 1.91-.255 2.058a16.964 16.964 0 00.048 1.368l.002.031.001.011v.008l5.983-.457zm-4.762 1.933c.508.735 1.165 1.394 1.405 1.634a22.936 22.936 0 00.634.61l.015.014.006.005.002.002.002.001 4.052-4.425a5697.61 5697.61 0 014.052-4.425v.001l.002.002.002.002h.001l-.01-.01a7.75 7.75 0 01-.273-.263c-.27-.269-.202-.236-.018.03l-9.872 6.823zm6.116-2.159l-.158 5.998h.012l.045.002.178.005a207.594 207.594 0 012.832.1c1.759.073 3.564.173 4.493.281l1.386-11.92c-1.44-.167-3.683-.28-5.379-.35a242.24 242.24 0 00-2.985-.106l-.194-.006-.052-.001h-.021l-.158 5.997zm7.405 6.387c-.55-.064-.77-.24-.605-.141.128.075.347.233.629.486a9.408 9.408 0 01.872.9l-.003-.003-.001-.002s-.002-.002 4.701-3.727a1366.52 1366.52 0 004.702-3.728l-.002-.002c0-.002-.002-.003-.003-.004l-.008-.01a.159.159 0 00-.018-.022l-.048-.06a19.682 19.682 0 00-.602-.7 21.423 21.423 0 00-1.577-1.574c-1.032-.926-3.471-2.965-6.657-3.334l-1.38 11.92zm11.425-1.076c.178-.737.396-1.108.519-1.28.118-.165.243-.276.41-.378.467-.289 1.114-.466 2.589-.74l-2.195-11.797c-1.26.234-4.06.698-6.696 2.325-2.934 1.81-5.25 4.751-6.29 9.048l11.663 2.822zm3.518-2.398l.199-.037-2.208-11.795c-.06.01-.12.022-.186.035l2.195 11.797zm.196-.037c2.517-.47 4.633-1.623 6.056-3.455a7.908 7.908 0 001.31-2.496 7.361 7.361 0 00.295-1.438 6.254 6.254 0 00.021-.27l.003-.042v-.02l.001-.01c0-.005 0-.01-5.994-.262-5.995-.251-5.995-.256-5.995-.26v-.01l.002-.02.002-.04a5.27 5.27 0 01.059-.555c.034-.21.083-.427.15-.645.139-.443.355-.89.67-1.294.708-.912 1.427-1.018 1.217-.979l2.203 11.796zm1.692-7.993c.3 5.993.279 5.994.258 5.995a7.979 7.979 0 01-.289.005 5.965 5.965 0 01-2.315-.48 5.81 5.81 0 01-1.846-1.258c-.784-.796-1.081-1.569-1.148-1.747-.138-.373.006-.186.131 1.398l11.963-.947c-.15-1.881-.392-3.413-.848-4.64-.225-.604-.665-1.588-1.55-2.487a6.189 6.189 0 00-1.967-1.346 6.077 6.077 0 00-2.607-.489l-.041.002c-.02 0-.041.002.259 5.994zm-5.21 3.898c-.019-.246.105-.15-.225.204-.327.35-.925.724-1.724.857l1.966 11.838c6.222-1.034 12.52-6.356 11.948-13.817l-11.965.918zm-1.946 1.06c-2.04.338-3.877 1.17-5.349 2.51a9.658 9.658 0 00-2.672 4.162 10.975 10.975 0 00-.497 4.29 9.094 9.094 0 00.063.557l.004.027.002.012v.007c.001.002.002.005 5.93-.921s5.928-.924 5.928-.92l.001.005.002.012a1.2 1.2 0 01.003.022l.006.04a4.704 4.704 0 01.02.174.997.997 0 01.005.107c0 .019 0 .13-.062.32a2.35 2.35 0 01-.654.98c-.429.39-.795.46-.77.455l-1.96-11.839zm-8.492 11.219l.416 4.316 11.944-1.15-.415-4.316-11.945 1.15zm.43 4.454c.489 4.083.309 6.885-.427 9.342-.743 2.484-2.2 5.105-5.023 8.597l9.334 7.542c3.37-4.17 5.832-8.177 7.185-12.698 1.361-4.547 1.455-9.124.847-14.209l-11.916 1.426zM67.804 58.83c-1.898 2.344-5.036 4.221-8.422 5.6l4.524 11.114c4.162-1.694 9.468-4.526 13.222-9.16l-9.324-7.554zM56.057 72.173c.422 1.079 1.37 3.281 2.948 5.393 1.5 2.005 4.261 4.85 8.505 5.457l1.7-11.879c.396.057.137.213-.592-.762-.65-.87-1.135-1.94-1.386-2.582l-11.175 4.373zm10.133-.683c-2.683 1.041-5.677.895-8.715.017-3.037-.878-5.673-2.365-7.227-3.373L43.72 78.202c2.103 1.364 5.843 3.508 10.423 4.832 4.579 1.324 10.445 1.95 16.389-.357L66.19 71.49zm-19.68-4.303c-1.542.122-3.488.264-5.925.43l.811 11.972a540.12 540.12 0 006.062-.44l-.948-11.962zm-5.922.429c-11.458.771-18.14-1.805-22.319-4.413l-6.352 10.18c6.442 4.02 15.654 7.136 29.477 6.206l-.806-11.973zm-22.31-4.408c-1.134-.71-1.64-1.216-1.941-1.604-.309-.397-.636-.973-1.05-2.154L3.962 63.412c.659 1.883 1.511 3.764 2.892 5.545 1.389 1.791 3.08 3.184 5.056 4.421l6.368-10.17zm-2.984-3.742c.41 1.184.764 3.72-1.184 5.906-1.471 1.651-3.287 1.888-3.642 1.935a5.482 5.482 0 01-1.185.028 4.19 4.19 0 01-.354-.044c-.03-.006.074.016.681.17l2.944-11.633c-.376-.096-1.03-.266-1.558-.358-.098-.017-1.017-.202-2.086-.062a6.088 6.088 0 00-3.76 1.982c-1.97 2.21-1.62 4.78-1.195 6.006l11.339-3.93zM9.61 67.46c3.276.829 13.587 3.564 23.864-1.237l-5.08-10.872c-6.05 2.827-12.51 1.318-15.84.476L9.61 67.46zm24.242-1.43a9.156 9.156 0 001.455-.986c.25-.21.769-.673 1.24-1.385.377-.566 1.504-2.473.81-4.996-.754-2.736-2.945-3.793-3.813-4.106a6.459 6.459 0 00-2.064-.376 8.643 8.643 0 00-1.808.174l2.293 11.779-.008.001a4.34 4.34 0 01-.715.044 5.55 5.55 0 01-1.768-.333c-.798-.288-2.946-1.308-3.687-3.997-.682-2.476.43-4.324.76-4.822a5.424 5.424 0 011.015-1.149c.332-.28.558-.392.455-.334l5.835 10.486zm-4.17-11.677c-4.989.962-11.536 1.09-17.584-2.972l-6.691 9.961c9.76 6.556 20.018 6.053 26.548 4.794l-2.273-11.783zm-17.593-2.978a2.446 2.446 0 01.83.99c.002.002-.04-.109-.113-.444a37.86 37.86 0 01-.261-1.373L.733 52.666c.304 1.697.75 6.052 4.683 8.683l6.673-9.973zm.456-.827c-.063-.348-.135-.75-.216-1.178L.54 51.608c.069.36.13.703.194 1.058l11.812-2.117zm-.17-.898l-.014-.099L.48 51.23l.014.099 11.882-1.678zm-.014-.099c-.3-2.131-.663-4.848.062-8.181.708-3.255 2.552-7.495 7.358-12.24l-8.433-8.539C4.965 26.897 1.922 33.19.697 38.821-.511 44.373.15 48.896.479 51.23l11.882-1.679zm7.131-20.155c.47-.407 1.404-.97 2.814-1.594 1.338-.594 2.737-1.087 3.956-1.508l-3.923-11.341c-1.22.422-3.048 1.059-4.896 1.878-1.778.788-3.992 1.923-5.806 3.494l7.855 9.071zm10.697-9.924L27.53 5.869 15.752 8.17l2.66 13.605 11.777-2.303zM21.641 7.02c1.152 5.888 1.151 5.888 1.15 5.889h-.004a.072.072 0 00.001 0l.05-.009a42.12 42.12 0 011.359-.218c.98-.14 2.424-.32 4.207-.46 3.587-.28 8.44-.39 13.6.25L43.482.561C37.295-.204 31.597-.063 27.469.26a77.946 77.946 0 00-4.98.546 54.106 54.106 0 00-1.977.322l-.014.003h-.005l-.003.001s-.002 0 1.15 5.889zm15.14-1.173l-1.512 13.458 11.925 1.339 1.511-13.458L36.78 5.847z" fill="#fff" mask="url(#a)"/><path d="M31.708 9h2.917v3.16h3.112v2.921h-3.112v3.142h-2.917v-3.142h-3.153V12.16h3.153V9z" fill="#fff"/><path fill-rule="evenodd" clip-rule="evenodd" d="M24.277 49.926a5.088 5.088 0 014.616-5.516 5.074 5.074 0 015.498 4.62 5.089 5.089 0 01-4.617 5.515 5.073 5.073 0 01-5.497-4.62z" fill="#fff"/><path d="M26.398 50.002c-.098-1.084.744-2.043 1.872-2.142 1.127-.098 2.115.697 2.213 1.788.098 1.084-.743 2.043-1.871 2.142-1.127.09-2.116-.705-2.214-1.788z" fill="#06BAB5"/></svg>