<svg width="144" height="37" fill="none" xmlns="http://www.w3.org/2000/svg"><path fill-rule="evenodd" clip-rule="evenodd" d="M62.704 27.267c0 4.774-3.939 8.713-8.713 8.713H52.44a8.685 8.685 0 01-8.713-8.713V16.645c0-2.268.835-4.536 2.625-6.207 1.671-1.67 3.82-2.626 6.207-2.626h1.551c2.388 0 4.536.955 6.207 2.626 1.67 1.552 2.626 3.82 2.626 6.207v7.997H49.575v.954c0 6.804 7.4 5.849 7.4 1.552l5.729.12zm-5.848-7.4v-1.91c0-3.222-1.313-4.893-3.82-4.893-2.387 0-3.58 1.671-3.58 4.894v1.91h7.4zm50.13-12.054l-6.803 28.167h-6.207L87.531 7.813H93.5l3.58 19.454 3.82-19.454h6.087zm36.279 28.16c-6.684 0-10.025-1.313-10.025-5.968V12.938h-2.865V7.805h2.865V.883h5.848v6.922h4.177v5.133h-4.177v15.635c-.119.955.477 1.79 1.432 2.03.955.118 1.79.238 2.745.118v5.252zm-15.397-8.706c0 4.774-3.939 8.713-8.713 8.713h-1.551c-4.775 0-8.713-3.938-8.713-8.713V16.645c0-2.387.835-4.536 2.625-6.207 1.671-1.67 3.82-2.626 6.207-2.626h1.552c2.387 0 4.535.955 6.206 2.626 1.671 1.671 2.626 3.82 2.626 6.207v7.997H114.62v.954c0 6.565 7.4 5.849 7.4 1.552l5.848.12zm-5.968-7.4v-1.91c0-3.222-1.313-4.893-3.819-4.893-2.387 0-3.581 1.671-3.581 4.894v1.91h7.4zM37.995 10.31a7.204 7.204 0 00-5.848-2.507c-5.849 0-7.042 3.58-7.042 3.58h-.12C18.182-4.61.398 1.596.04 3.745c-.358 2.148 1.79.835 1.79.835 16.83-5.729 19.097 9.549 19.336 13.01v18.5h5.968V16.277c0-2.268 1.193-3.342 3.461-3.342 2.626 0 3.82 1.552 3.82 4.894V35.97h5.729V16.516c.119-2.268-.597-4.536-2.149-6.207zM67.475.765c-.716.238-1.79 3.341-.716 7.996h.12C68.31 7.33 70.1 6.255 72.01 5.777 70.698 2.197 68.072.645 67.475.765zm16.71 0c-.597-.24-3.223 1.432-4.535 5.012 1.91.478 3.7 1.552 5.132 2.984l.12.12c1.073-4.775 0-7.878-.717-8.116zm1.074 26.377c0 4.774-3.939 8.713-8.713 8.713h-1.552c-4.774 0-8.713-3.938-8.713-8.713V16.52c0-2.268.836-4.536 2.626-6.207 1.671-1.67 3.82-2.626 6.207-2.626h1.551c2.268 0 4.536.955 6.207 2.626 1.67 1.671 2.625 3.82 2.625 6.207-.238 0-.238 10.622-.238 10.622zm-5.849-1.551v-7.639c0-3.223-1.313-4.894-3.82-4.894-2.505 0-3.58 1.671-3.58 4.894v7.639c0 3.222 1.313 4.893 3.82 4.893 2.387 0 3.58-1.67 3.58-4.893z" fill="#B2B6BF"/></svg>