<svg width="163" height="29" fill="none" xmlns="http://www.w3.org/2000/svg"><path d="M162.998.617V6.3h-8.783v21.87h-5.682V6.3h-8.783V.652h8.783V.617h14.465zm-26.686 5.714h-14.121v5.235l11.882-.034v5.717h-11.882v5.235l14.121-.034v5.717h-19.804V.648h19.804v5.683zM99.752.617c2.939 0 5.247.586 6.923 1.757 1.676 1.17 2.514 2.766 2.514 4.787 0 1.7-.39 3.054-1.171 4.064-.781.987-2.181 1.573-4.202 1.757 1.791.137 3.341.39 4.65.757 1.309.368 2.399 1.034 3.272 1.998.895.964 1.343 2.307 1.343 4.03 0 2.939-1.286 5.074-3.857 6.406-2.549 1.331-5.706 1.997-9.472 1.997H87.25V.617h12.502zm0 10.023c1.286 0 2.193-.184 2.721-.552.528-.39.792-.952.792-1.687 0-1.263-1.171-1.894-3.513-1.894h-6.647v4.133h6.647zm0 11.675c1.883 0 3.295-.115 4.236-.344.965-.23 1.596-.563 1.895-.999.321-.436.482-1.045.482-1.825 0-.666-.161-1.194-.482-1.585-.299-.39-.93-.689-1.895-.895-.941-.23-2.353-.345-4.236-.345h-6.647v5.993h6.647zM83.787.617V6.3h-8.783v21.87h-5.682V6.3h-8.783V.652h8.783V.617h14.465zM39.453 28.17h-5.82V.617h11.641c3.834 0 7.049.62 9.643 1.86 2.595 1.24 3.892 3.662 3.892 7.267 0 3.1-1.343 5.258-4.03 6.475-2.663 1.217-5.831 1.825-9.505 1.825h-5.82V28.17zm5.821-15.67c1.7 0 3.03-.08 3.995-.242.965-.16 1.676-.447 2.136-.86.459-.437.688-1.068.688-1.895s-.23-1.458-.689-1.894c-.459-.436-1.182-.735-2.17-.896-.964-.16-2.284-.24-3.96-.24h-5.82v6.026h5.82zM23.799 28.17l-2.204-5.097H8.61L6.406 28.17H0L11.848.617h6.44L30.205 28.17h-6.406zM11.124 17.218l7.922-.035-3.96-9.195-3.962 9.23z" fill="#B2B6BF"/></svg>