<svg width="178" height="181" fill="none" xmlns="http://www.w3.org/2000/svg"><path d="M55.135 144.44s6.475 4.583 14.824 3.188c8.35-1.395 15.704-3.288 18.293-3.188 2.59.1 7.852 1.512 8.45 5.877.596 4.365-4.665 8.35-17.498 8.648-12.833.298-22.694.779-28.752-2.789s-11.039-8.25-10.64-19.389c.397-11.139 9.726-19.987 19.388-22.577 9.662-2.59 39.792-3.586 51.628 10.641" stroke="#06BAB5" stroke-width="8" stroke-miterlimit="3.864"/><path d="M40.556 165.841a8.388 8.388 0 018.388-8.388h79.602a8.387 8.387 0 018.388 8.388v2.253a8.388 8.388 0 01-8.388 8.388H48.943a8.387 8.387 0 01-8.388-8.388v-2.253z" stroke="#06BAB5" stroke-width="8" stroke-miterlimit="3.864"/><path d="M90.56 176.483H29.45a8.387 8.387 0 01-8.388-8.388l-.093-78.07-.038-2.309H8.167c-1.653-.113-3.191-1.438-3.705-2.775-1.573-4.091 1.376-6.489 1.376-6.489L88.688 6l82.961 72.452s2.949 2.398 1.376 6.489c-.514 1.337-2.052 2.663-3.705 2.775h-12.765l-.038 2.309-.092 78.07a8.388 8.388 0 01-8.388 8.388h-61.11" stroke="#06BAB5" stroke-width="8" stroke-miterlimit="3.864"/><path clip-rule="evenodd" d="M108.633 149.492c.937.799 2.151 1.803 3.718 3.053 5.996 4.781 12.389-.184 12.389-.184l17.586-16.203s-.705-1.199-2.766-1.66c-2.062-.461-8.332-.369-8.332-.369s-1.939-3.414-3.448-5.258c-1.844-1.508-5.34-3.483-5.34-3.483s.092-6.271-.369-8.332c-.461-2.062-1.66-2.767-1.66-2.767l-16.203 17.586s-4.966 6.394-.184 12.39a146.528 146.528 0 003.053 3.718l1.556 1.509z" stroke="#06BAB5" stroke-width="8" stroke-miterlimit="3.864"/><path d="M81.982 44.047h11.95a2.664 2.664 0 012.665 2.664v14.108h14.107a2.664 2.664 0 012.664 2.664v11.952a2.664 2.664 0 01-2.664 2.664H96.597v14.108a2.664 2.664 0 01-2.664 2.664H81.982a2.664 2.664 0 01-2.664-2.664v-14.11H65.21a2.664 2.664 0 01-2.664-2.664V63.48a2.664 2.664 0 012.664-2.664h14.107V46.709a2.663 2.663 0 012.664-2.662z" stroke="#06BAB5" stroke-width="8" stroke-miterlimit="3.864" stroke-linecap="round" stroke-linejoin="round"/></svg>