<svg width="184" height="184" fill="none" xmlns="http://www.w3.org/2000/svg"><path d="M122.699 61.947S102.958 40.863 83.01 43.343c0 0-6.82 12.093 19.225 33.59V89.44s.206 13.23-10.853 8.165c-11.059-5.065-29.456-12.093-48.163.62-18.707 12.713-17.26 38.24-16.64 47.026.62 8.785 2.584 33.591 20.051 33.591h53.937s8.286.316 7.659-9.819c-.6-9.696-22.219-7.028-22.219-7.028m8.89-.828s1.654-32.144-27.905-32.144" stroke="#06BAB5" stroke-width="8" stroke-miterlimit="3.864" stroke-linecap="round" stroke-linejoin="round"/><path d="M30.532 166.614c-.752-.502-21.337 1.639-21.337-16.187s17.073-17.45 17.073-17.45m79.438-96.9s-5.628-16.602 4.35-14.112 22.23 14.451 27.304 32.162c0 0 22.278 9.593 28.488 33.853 6.21 24.26-9.302 24.382-20.079 22.062-10.777-2.32-25.444-11.454-25.444-11.454m26.968 12.131v13.483s.047 11.162-7.226 18.726c0 0 5.899 12.888 6.852 19.84h5.904s7.919.205 7.919 8.204c0 7.999-4.967 8.475-7.729 8.475H139.19s-3.032.19-5.713-3.714-21.836-32.708-21.836-32.708m-17.836 7.25s18.028 1.509 18.028-7.252m40.948-119.137l8.959-9.745m5.502 27.349l11.906-8.763M32.935 108.091S3.228 95.792 4.015 29.777c0 0 41.81-14.264 41.81-25.777 0 11.513 41.847 25.777 41.847 25.777.375 31.436-6.166 50.691-13.12 62.238" stroke="#06BAB5" stroke-width="8" stroke-miterlimit="3.864" stroke-linecap="round" stroke-linejoin="round"/><path d="M46.355 58.843L33.152 45.32l-9.824 9.824L46.355 78.17" stroke="#06BAB5" stroke-width="8" stroke-miterlimit="3.864" stroke-linecap="round" stroke-linejoin="round"/><path d="M45.336 58.843L58.538 45.32l9.824 9.824L45.336 78.17" stroke="#06BAB5" stroke-width="8" stroke-miterlimit="3.864" stroke-linecap="round" stroke-linejoin="round"/></svg>