<svg width="181" height="181" fill="none" xmlns="http://www.w3.org/2000/svg"><path d="M119.663 95.812c-2.412-2.874-7.741-2.373-11.904 1.12-4.163 3.492-5.583 8.653-3.172 11.528 2.411 2.874 7.741 2.373 11.904-1.12 4.163-3.492 5.583-8.653 3.172-11.528zM91.507 82.157c-2.549.829-3.723 4.247-2.622 7.636 1.101 3.388 4.06 5.464 6.61 4.636 2.548-.828 3.722-4.246 2.62-7.635-1.1-3.389-4.059-5.465-6.608-4.636zm10.623 45.213a4.388 4.388 0 100-8.776 4.388 4.388 0 000 8.776zm20.776-1.081a2.797 2.797 0 100-5.593 2.797 2.797 0 000 5.593zm-7.773-45.546a2.797 2.797 0 100-5.594 2.797 2.797 0 000 5.594zm20.728 27.096a4.986 4.986 0 10-.002-9.972 4.986 4.986 0 00.002 9.972zM87.961 112a2.797 2.797 0 100-5.594 2.797 2.797 0 000 5.594z" stroke="#06BAB5" stroke-width="8" stroke-miterlimit="3.864" stroke-linecap="round" stroke-linejoin="round"/><path d="M111.602 139.485c20.974 0 37.977-17.003 37.977-37.977 0-20.974-17.003-37.977-37.977-37.977-20.974 0-37.977 17.003-37.977 37.977 0 20.974 17.003 37.977 37.977 37.977zm34.247 9.26a3.909 3.909 0 010-5.53l2.867-2.867a3.912 3.912 0 015.531 0l21.351 21.351a3.909 3.909 0 010 5.53l-2.867 2.867a3.912 3.912 0 01-5.531 0l-21.351-21.351zm-9.482-18.792l11.474 11.474" stroke="#06BAB5" stroke-width="8" stroke-miterlimit="3.864" stroke-linecap="round" stroke-linejoin="round"/><path d="M153.299 77.046v-7.365s.692-8.411 5.332-8.411c4.639 0 10.189-2.033 11.511-4.284 1.322-2.251 5.587-9.853 4.758-12.104-.83-2.25-6.891-4.048-8.431-9.024-1.541-4.976-4.521-10.919-10.326-12.578-5.806-1.659-6.517-2.013-6.517-2.013v-10.09c.711-2.607-4.758-10.208-13.782-3.555-11.017 8.125-19.587 16.724-22.549 25.748-2.962 9.024-6.062 14.256-9.379 17.454-3.318 3.2-4.402 4.147-11.156 4.502-6.753.355-29.203 2.151-47.112 17.928-17.91 15.776-22.668 31.434-23.616 51.021-.947 19.587-.118 23.26-.118 23.26" stroke="#06BAB5" stroke-width="8" stroke-miterlimit="3.864" stroke-linecap="round" stroke-linejoin="round"/><path d="M48.013 60.327s2.606-15.559 1.303-24.7c-1.303-9.142-6.99-17.317-15.303-15.422-8.312 1.896-8.294 10.9-6.516 15.658 1.777 4.758 4.028 13.17 2.369 20.061-1.659 6.891-5.469 14.473-9.141 20.18-3.673 5.705-11.019 17.573-14.356 30.742-3.336 13.169-2.526 40.596-1.322 46.163 1.204 5.569 8.568 19.706 23.042 21.957 14.474 2.251 56.136 1.185 56.136 1.185h3.317s5.706-5.825 0-10.565c-5.706-4.739-26.341-8.905-26.341-8.905s14.492 1.166 22.43-8.905m34.292 1.265v12.407s-.237 2.251.948 2.963c1.184.71 5.948 2.636 4.053 7.376-1.895 4.739-5.849 4.609-8.575 4.609-2.725 0-7.514.391-11.509-6.615-4.34-7.609-4.504-21.64-4.504-21.64" stroke="#06BAB5" stroke-width="8" stroke-miterlimit="3.864" stroke-linecap="round" stroke-linejoin="round"/></svg>