<svg width="204" height="183" fill="none" xmlns="http://www.w3.org/2000/svg"><path d="M112.82 112.096a4.737 4.737 0 014.737-4.737h77.229a4.737 4.737 0 014.737 4.737v61.23a4.737 4.737 0 01-4.737 4.737h-77.229a4.737 4.737 0 01-4.737-4.737v-61.23z" stroke="#06BAB5" stroke-width="8" stroke-miterlimit="3.864" stroke-linecap="round" stroke-linejoin="round"/><path clip-rule="evenodd" d="M157.583 140.755c9.247 0 13.708-5.583 13.708-5.583l13.261 17.843s-12.802 10.958-27.173 10.958c-14.371 0-27.199-10.958-27.199-10.958l13.261-17.843s4.42 5.583 13.667 5.583h.475z" stroke="#06BAB5" stroke-width="8" stroke-miterlimit="3.864" stroke-linecap="round" stroke-linejoin="round"/><path d="M123.68 120.227h13.004m-13.161 11.25h8.095m-13.732-70.103l-2.002-1.795c-1.883-1.795-5.385 2.403-5.385 2.403l-3.623 5.025s-1.382 2.202 2.446 6.031l15.391 15.391s2.202 2.021 4.861-.638a169.892 169.892 0 015.032-4.823s2.453-2.213.12-4.455c-3.037-2.917-9.541-9.154-9.541-9.154m21.409-20.147l10.135-11.094s4.361-3.833 11.141-1.318c6.781 2.517 10.135 5.872 10.255 12.413.12 6.54-2.923 13.322-8.505 21.708-5.583 8.385-13.01 23.791-13.01 36.322" stroke="#06BAB5" stroke-width="8" stroke-miterlimit="3.864" stroke-linecap="round" stroke-linejoin="round"/><path d="M134.551 76.918l15.158-18.65c3.354-3.666-6.421-15.526-12.172-12.052 0 0-18.631 13.979-18.631 14.338m-6.491 29.033a9.11 9.11 0 01-9.11-9.11m7.155 20.396c-10.264 0-18.585-8.32-18.585-18.584" stroke="#06BAB5" stroke-width="8" stroke-miterlimit="3.864" stroke-linecap="round" stroke-linejoin="round"/><path d="M111.967 121.269c-11.533 6.938-34.207 6.938-34.207 6.938-1.61 11.004-11.382 39.731-12.234 42.191-.852 2.46-5.894 2.934-5.894 2.934H40.49c-.378-8.802 13.654-11.735 13.654-11.735-1.325-3.88-3.028-41.933-3.028-41.933s-5.326-5.016-12.423-15.546-7.503-24.752-7.503-36.607c0-11.856-13.275-9.843-13.275-9.843s-9.111.568-12.896-8.07c-3.786-8.638 4.095-11.572 5.515-13.181 1.419-1.609.757-5.704 4.164-9.3 3.407-3.596 9.679-5.962 12.044-8.518C29.108 16.044 35.449 6.46 34.786 4c0 0 7.029 5.867 8.827 16.682 0 0 9.085 3.786 14.127 16.588 0 0 2.77 6.366 5.325 10.625 2.556 4.259 7.838 13.567 20.072 13.567h13.885" stroke="#06BAB5" stroke-width="8" stroke-miterlimit="3.864" stroke-linecap="round" stroke-linejoin="round"/></svg>