<svg width="157" height="185" fill="none" xmlns="http://www.w3.org/2000/svg"><path clip-rule="evenodd" d="M65.883 124.62c0-4.834 5.372-8.753 11.999-8.753 6.627 0 11.999 3.919 11.999 8.753s-5.372 10.53-12 10.53c-6.626 0-11.998-5.696-11.998-10.53z" stroke="#06BAB5" stroke-width="8" stroke-miterlimit="3.864" stroke-linecap="round" stroke-linejoin="round"/><path d="M106.102 124.992c2.396 2.821 3.99 6.523 3.99 10.577 0 8.845-7.17 16.014-16.014 16.014-8.846 0-16.016-7.169-16.016-16.014m-28.064-10.577c-2.396 2.821-3.99 6.523-3.99 10.577 0 8.845 7.17 16.014 16.015 16.014s16.015-7.169 16.015-16.014" stroke="#06BAB5" stroke-width="8" stroke-miterlimit="3.864" stroke-linecap="round" stroke-linejoin="round"/><path d="M20.803 109.086s-3.53 16.904-.796 26.53c5.409 19.036 27.2 43.496 58.242 45.007m57.405-72.842s3.531 18.208.796 27.833c-5.405 19.027-27.181 43.476-58.2 45.007" stroke="#06BAB5" stroke-width="8" stroke-miterlimit="3.864" stroke-linecap="round" stroke-linejoin="round"/><path d="M111.853 71.265s5.308-1.858 8.758 1.459c3.45 3.317 10.766 27.9 10.766 27.9s1.478 7.298 7.449 7.298 13.022-12.605 13.553-19.39c.531-6.785-.965-28.281-28.317-31.218-27.354-2.937-24.32-9.97-45.966-9.97-21.647 0-18.348 7.033-45.701 9.97C5.042 60.252 3.545 81.747 4.077 88.532c.53 6.785 7.582 19.39 13.553 19.39 5.97 0 7.449-7.298 7.449-7.298s7.316-24.583 10.766-27.9 8.758-1.46 8.758-1.46m33.624-40.426c22.169 0 40.141-6.008 40.141-13.419C118.368 10.008 100.396 4 78.227 4c-22.17 0-40.141 6.008-40.141 13.419 0 7.411 17.972 13.419 40.14 13.419zM57.81 95.102l-11.482 11.482m0-11.482l11.482 11.482m52.313-11.482l-11.482 11.482m-.001-11.482l11.483 11.482" stroke="#06BAB5" stroke-width="8" stroke-miterlimit="3.864" stroke-linecap="round" stroke-linejoin="round"/></svg>