<svg width="211" height="169" fill="none" xmlns="http://www.w3.org/2000/svg"><path d="M5.297 11.602h104.882V87.19H5.297V11.6zm117.781 115.554H4.023v15.88h119.055v-15.88zM85.07 88.063v18.421M39.945 88.063v18.421" stroke="#06BAB5" stroke-width="8" stroke-miterlimit="3.864" stroke-linecap="round" stroke-linejoin="round"/><path d="M53.278 12.773S48.68 25.433 55.4 26.494c6.718 1.061 25.39-1.945 30.27 7.355 4.88 9.302 3.996 35.577-8.663 40.634-12.66 5.056-17.789-3.36-24.614-3.89-6.825-.53-9.83 1.06-9.83 14.251" stroke="#06BAB5" stroke-width="8" stroke-miterlimit="3.864" stroke-linecap="round" stroke-linejoin="round"/><path d="M43.269 12.422s-7.18 9.654.354 18.424c7.532 8.77 15.49 8.84 14.605 19.379-.733 8.74-8.312 10.786-15.843 12.483-7.532 1.697-8.947 4.774-8.947 23.02" stroke="#06BAB5" stroke-width="8" stroke-miterlimit="3.864" stroke-linecap="round" stroke-linejoin="round"/><path d="M58.352 48.134c1.843 1.806 4.563 3.613 7.77 3.078 4.349-.725 4.562-4.15 7.792-3.896 3.445.272 4.168 5.708 9.606 4.44 1.98-.463 3.626-2.718 4.916-5.397m79.117 48.881c11.546 0 20.905-9.36 20.905-20.905 0-11.546-9.359-20.905-20.905-20.905-11.545 0-20.905 9.36-20.905 20.905 0 11.545 9.36 20.905 20.905 20.905z" stroke="#06BAB5" stroke-width="8" stroke-miterlimit="3.864" stroke-linecap="round" stroke-linejoin="round"/><path d="M180.794 90.922v33.719c0 7.375-5.979 13.354-13.354 13.354-7.375 0-13.354-5.979-13.354-13.354V90.383m-7.555-16.906h21.848m19.96 0h-8.269m-12.585 64.921v12.318s1.798 13.756-14.476 13.756H38.274s-17.352.625-17.352-19.423M150.414 41.046a32.943 32.943 0 0116.081-4.163c7.366 0 14.08 2.407 19.669 6.477m-44.461-16.282c7.291-4.223 15.757-6.64 24.789-6.64 10.739 0 20.588 3.417 28.793 9.224m-63.41-15.859C141.866 7.587 153.797 4 166.494 4c14.865 0 28.582 4.917 39.613 13.212m-83.055 110.241l-20.014-20.969H62.25h2.553-40.789L4 127.453" stroke="#06BAB5" stroke-width="8" stroke-miterlimit="3.864" stroke-linecap="round" stroke-linejoin="round"/></svg>