<svg width="202" height="197" fill="none" xmlns="http://www.w3.org/2000/svg"><path d="M55.651 75.61s29.21-26.227 20.653-64.03c0 0-10.599-.503-19.647 15.855-9.048 16.358-11.834 37.681-11.834 37.681s-15.561-1.172-25.177 7.31c-4.37 3.856-7.904 11.233-8.945 17.546 0 0-.348 7.059-3.13 9.754-2.782 2.696-4.346 5.408-3.042 10.623 1.304 5.216 4 13.058 13.318 14.797 9.32 1.738 21.352-.261 29.958-11.319" stroke="#06BAB5" stroke-width="8" stroke-miterlimit="3.864" stroke-linecap="round" stroke-linejoin="round"/><path d="M36.575 123.062s5.217 10.033 5.217 19.161c0 9.128-3.304 26.463-3.304 26.463H32.21s-4.695.452-4.695 6.885c0 6.434 4.537 8.103 8.101 8.103H49.98s8.015-.626 11.754-16.031a171.507 171.507 0 002.823-14.089m24.845 15.13H76.789s-4.695.453-4.695 6.885c0 6.434 4.538 8.103 8.103 8.103h38.625s8.015-.625 11.754-16.03c1.335-5.506 1.078-11.825 1.165-16.986m-48.055 18.026s-7.458-2.429-4.553-24.635M64.422 154.07s2.95 5.812 14.27 5.812M37.393 65.229c-.804-.162-9.987-12.472-3.788-34.84C39.805 8.02 56.135 4 56.135 4s3.387 7.906 4.707 17.134" stroke="#06BAB5" stroke-width="8" stroke-miterlimit="3.864" stroke-linecap="round" stroke-linejoin="round"/><path clip-rule="evenodd" d="M75.078 68.084l10.839 36.184 23.808-8.168-11.313-34.764-12.276 3.55-11.058 3.198z" stroke="#06BAB5" stroke-width="8" stroke-miterlimit="3.864" stroke-linecap="round" stroke-linejoin="round"/><path d="M82.367 53.758l3.551 11.193m12.363 35.135l3.552 11.194M55.93 75.61s3.19 4.05 4.665 7.735c1.474 3.685-.614 15.597 24.194 18.3m15.451-36.153s16.478 6.623 28.016 14.383c11.538 7.762 11.409 30.991 9.573 34.354-1.837 3.363-4.399 7.916-10.892 7.398-6.492-.517-13.607-3.363-13.607-3.363s-9.985-8.067-17.228-1.837c-7.399 6.364-4.399 10.916.387 14.667 4.786 3.751 28.25 16.841 28.25 16.841s2.612 2.458 8.174 2.846c5.562.388 11.253 1.319 15.418 3.518 4.165 2.198 13.478 15.546 13.478 15.546m-54.041-60.275l-11.15 3.751" stroke="#06BAB5" stroke-width="8" stroke-miterlimit="3.864" stroke-linecap="round" stroke-linejoin="round"/><path d="M95.07 61.744s-1.94-8.538 2.587-12.055c4.527-3.518 14.797 1.035 19.712 3.233 4.916 2.199 22.274 8.925 28.12 14.255 5.846 5.328 13.244 19.169 17.255 23.592 4.009 4.423 8.901 14.373 11.123 17.772 3.13 4.786 2.148 22.311 4.812 28.508 1.551 3.607 3.824 11.027 5.289 16.011" stroke="#06BAB5" stroke-width="8" stroke-miterlimit="3.864" stroke-linecap="round" stroke-linejoin="round"/><path d="M169.075 192.017l-8.045-8.821s-7.398-6.235-.258-12.831c7.14-6.597 22.181-17.206 23.981-18.134 4.812-2.482 13.244-1.06 13.244-1.06" stroke="#06BAB5" stroke-width="8" stroke-miterlimit="3.864" stroke-linecap="round" stroke-linejoin="round"/></svg>